<mxfile host="app.diagrams.net" modified="2023-12-08T06:29:36.878Z" agent="Mozilla/5.0 (Windows NT 10.0; Win64; x64) AppleWebKit/537.36 (KHTML, like Gecko) Chrome/119.0.0.0 Safari/537.36" etag="or3fQg2ruKSeWcAOjJja" version="22.1.7" type="github">
  <diagram name="Page-1" id="5f0bae14-7c28-e335-631c-24af17079c00">
    <mxGraphModel dx="1434" dy="758" grid="1" gridSize="10" guides="1" tooltips="1" connect="1" arrows="1" fold="1" page="1" pageScale="1" pageWidth="1100" pageHeight="850" background="none" math="0" shadow="0">
      <root>
        <mxCell id="0" />
        <mxCell id="1" parent="0" />
        <mxCell id="39150e848f15840c-1" value="CBI" style="verticalAlign=top;align=center;spacingTop=8;spacingLeft=2;spacingRight=12;shape=cube;size=10;direction=south;fontStyle=5;html=1;rounded=0;shadow=0;comic=0;labelBackgroundColor=none;strokeWidth=1;fontFamily=Verdana;fontSize=12;fillStyle=auto;fillColor=#d0cee2;strokeColor=#56517e;" parent="1" vertex="1">
          <mxGeometry x="120" y="70" width="1520" height="140" as="geometry" />
        </mxCell>
        <mxCell id="2Glj2CWhZ70RwVYnVsTa-1" value="192.168.11.131:19100" style="html=1;dropTarget=0;whiteSpace=wrap;" vertex="1" parent="1">
          <mxGeometry x="210" y="120" width="180" height="60" as="geometry" />
        </mxCell>
        <mxCell id="2Glj2CWhZ70RwVYnVsTa-2" value="" style="shape=module;jettyWidth=8;jettyHeight=4;" vertex="1" parent="2Glj2CWhZ70RwVYnVsTa-1">
          <mxGeometry x="1" width="20" height="20" relative="1" as="geometry">
            <mxPoint x="-27" y="7" as="offset" />
          </mxGeometry>
        </mxCell>
        <mxCell id="2Glj2CWhZ70RwVYnVsTa-3" value="192.168.11.132:19100" style="html=1;dropTarget=0;whiteSpace=wrap;" vertex="1" parent="1">
          <mxGeometry x="566" y="120" width="180" height="60" as="geometry" />
        </mxCell>
        <mxCell id="2Glj2CWhZ70RwVYnVsTa-4" value="" style="shape=module;jettyWidth=8;jettyHeight=4;" vertex="1" parent="2Glj2CWhZ70RwVYnVsTa-3">
          <mxGeometry x="1" width="20" height="20" relative="1" as="geometry">
            <mxPoint x="-27" y="7" as="offset" />
          </mxGeometry>
        </mxCell>
        <mxCell id="2Glj2CWhZ70RwVYnVsTa-5" value="192.168.11.133:19100" style="html=1;dropTarget=0;whiteSpace=wrap;" vertex="1" parent="1">
          <mxGeometry x="930" y="120" width="180" height="60" as="geometry" />
        </mxCell>
        <mxCell id="2Glj2CWhZ70RwVYnVsTa-6" value="" style="shape=module;jettyWidth=8;jettyHeight=4;" vertex="1" parent="2Glj2CWhZ70RwVYnVsTa-5">
          <mxGeometry x="1" width="20" height="20" relative="1" as="geometry">
            <mxPoint x="-27" y="7" as="offset" />
          </mxGeometry>
        </mxCell>
        <mxCell id="2Glj2CWhZ70RwVYnVsTa-7" value="192.168.11.134:19100" style="html=1;dropTarget=0;whiteSpace=wrap;" vertex="1" parent="1">
          <mxGeometry x="1300" y="120" width="180" height="60" as="geometry" />
        </mxCell>
        <mxCell id="2Glj2CWhZ70RwVYnVsTa-8" value="" style="shape=module;jettyWidth=8;jettyHeight=4;" vertex="1" parent="2Glj2CWhZ70RwVYnVsTa-7">
          <mxGeometry x="1" width="20" height="20" relative="1" as="geometry">
            <mxPoint x="-27" y="7" as="offset" />
          </mxGeometry>
        </mxCell>
        <mxCell id="2Glj2CWhZ70RwVYnVsTa-9" value="CIEU" style="verticalAlign=top;align=center;spacingTop=8;spacingLeft=2;spacingRight=12;shape=cube;size=10;direction=south;fontStyle=5;html=1;rounded=0;shadow=0;comic=0;labelBackgroundColor=none;strokeWidth=1;fontFamily=Verdana;fontSize=12;labelPosition=center;verticalLabelPosition=middle;fillColor=#cce5ff;strokeColor=#36393d;" vertex="1" parent="1">
          <mxGeometry x="120" y="241" width="1520" height="539" as="geometry" />
        </mxCell>
        <mxCell id="2Glj2CWhZ70RwVYnVsTa-10" value="CIEU-1" style="verticalAlign=top;align=center;spacingTop=8;spacingLeft=2;spacingRight=12;shape=cube;size=10;direction=south;fontStyle=5;html=1;rounded=0;shadow=0;comic=0;labelBackgroundColor=none;strokeWidth=1;fontFamily=Verdana;fontSize=12" vertex="1" parent="1">
          <mxGeometry x="150" y="287" width="300" height="470" as="geometry" />
        </mxCell>
        <mxCell id="2Glj2CWhZ70RwVYnVsTa-11" value="192.168.11.231:29100" style="html=1;dropTarget=0;whiteSpace=wrap;" vertex="1" parent="1">
          <mxGeometry x="210" y="340" width="180" height="60" as="geometry" />
        </mxCell>
        <mxCell id="2Glj2CWhZ70RwVYnVsTa-12" value="" style="shape=module;jettyWidth=8;jettyHeight=4;" vertex="1" parent="2Glj2CWhZ70RwVYnVsTa-11">
          <mxGeometry x="1" width="20" height="20" relative="1" as="geometry">
            <mxPoint x="-27" y="7" as="offset" />
          </mxGeometry>
        </mxCell>
        <mxCell id="2Glj2CWhZ70RwVYnVsTa-14" style="edgeStyle=orthogonalEdgeStyle;rounded=0;orthogonalLoop=1;jettySize=auto;html=1;exitX=1;exitY=0.5;exitDx=0;exitDy=0;entryX=1;entryY=0.5;entryDx=0;entryDy=0;" edge="1" parent="1" source="2Glj2CWhZ70RwVYnVsTa-1" target="2Glj2CWhZ70RwVYnVsTa-11">
          <mxGeometry relative="1" as="geometry" />
        </mxCell>
        <mxCell id="2Glj2CWhZ70RwVYnVsTa-13" style="edgeStyle=orthogonalEdgeStyle;rounded=0;orthogonalLoop=1;jettySize=auto;html=1;entryX=0;entryY=0.5;entryDx=0;entryDy=0;exitX=0;exitY=0.5;exitDx=0;exitDy=0;" edge="1" parent="1" source="2Glj2CWhZ70RwVYnVsTa-11" target="2Glj2CWhZ70RwVYnVsTa-1">
          <mxGeometry relative="1" as="geometry">
            <Array as="points">
              <mxPoint x="190" y="370" />
              <mxPoint x="190" y="150" />
            </Array>
          </mxGeometry>
        </mxCell>
        <mxCell id="2Glj2CWhZ70RwVYnVsTa-15" value="CIEU-2" style="verticalAlign=top;align=center;spacingTop=8;spacingLeft=2;spacingRight=12;shape=cube;size=10;direction=south;fontStyle=5;html=1;rounded=0;shadow=0;comic=0;labelBackgroundColor=none;strokeWidth=1;fontFamily=Verdana;fontSize=12" vertex="1" parent="1">
          <mxGeometry x="506" y="287" width="300" height="470" as="geometry" />
        </mxCell>
        <mxCell id="2Glj2CWhZ70RwVYnVsTa-16" value="192.168.11.231:29100" style="html=1;dropTarget=0;whiteSpace=wrap;" vertex="1" parent="1">
          <mxGeometry x="566" y="340" width="180" height="60" as="geometry" />
        </mxCell>
        <mxCell id="2Glj2CWhZ70RwVYnVsTa-17" value="" style="shape=module;jettyWidth=8;jettyHeight=4;" vertex="1" parent="2Glj2CWhZ70RwVYnVsTa-16">
          <mxGeometry x="1" width="20" height="20" relative="1" as="geometry">
            <mxPoint x="-27" y="7" as="offset" />
          </mxGeometry>
        </mxCell>
        <mxCell id="2Glj2CWhZ70RwVYnVsTa-18" value="CIEU-3" style="verticalAlign=top;align=center;spacingTop=8;spacingLeft=2;spacingRight=12;shape=cube;size=10;direction=south;fontStyle=5;html=1;rounded=0;shadow=0;comic=0;labelBackgroundColor=none;strokeWidth=1;fontFamily=Verdana;fontSize=12" vertex="1" parent="1">
          <mxGeometry x="870" y="287" width="300" height="470" as="geometry" />
        </mxCell>
        <mxCell id="2Glj2CWhZ70RwVYnVsTa-19" value="192.168.11.231:29100" style="html=1;dropTarget=0;whiteSpace=wrap;" vertex="1" parent="1">
          <mxGeometry x="930" y="340" width="180" height="60" as="geometry" />
        </mxCell>
        <mxCell id="2Glj2CWhZ70RwVYnVsTa-20" value="" style="shape=module;jettyWidth=8;jettyHeight=4;" vertex="1" parent="2Glj2CWhZ70RwVYnVsTa-19">
          <mxGeometry x="1" width="20" height="20" relative="1" as="geometry">
            <mxPoint x="-27" y="7" as="offset" />
          </mxGeometry>
        </mxCell>
        <mxCell id="2Glj2CWhZ70RwVYnVsTa-21" value="CIEU-4" style="verticalAlign=top;align=center;spacingTop=8;spacingLeft=2;spacingRight=12;shape=cube;size=10;direction=south;fontStyle=5;html=1;rounded=0;shadow=0;comic=0;labelBackgroundColor=none;strokeWidth=1;fontFamily=Verdana;fontSize=12" vertex="1" parent="1">
          <mxGeometry x="1240" y="287" width="300" height="470" as="geometry" />
        </mxCell>
        <mxCell id="2Glj2CWhZ70RwVYnVsTa-22" value="192.168.11.231:29100" style="html=1;dropTarget=0;whiteSpace=wrap;" vertex="1" parent="1">
          <mxGeometry x="1300" y="340" width="180" height="60" as="geometry" />
        </mxCell>
        <mxCell id="2Glj2CWhZ70RwVYnVsTa-23" value="" style="shape=module;jettyWidth=8;jettyHeight=4;" vertex="1" parent="2Glj2CWhZ70RwVYnVsTa-22">
          <mxGeometry x="1" width="20" height="20" relative="1" as="geometry">
            <mxPoint x="-27" y="7" as="offset" />
          </mxGeometry>
        </mxCell>
        <mxCell id="2Glj2CWhZ70RwVYnVsTa-24" value="192.168.22.97" style="html=1;dropTarget=0;whiteSpace=wrap;verticalAlign=top;align=center;" vertex="1" parent="1">
          <mxGeometry x="210" y="430" width="180" height="300" as="geometry" />
        </mxCell>
        <mxCell id="2Glj2CWhZ70RwVYnVsTa-25" value="" style="shape=module;jettyWidth=8;jettyHeight=4;" vertex="1" parent="2Glj2CWhZ70RwVYnVsTa-24">
          <mxGeometry x="1" width="20" height="20" relative="1" as="geometry">
            <mxPoint x="-27" y="7" as="offset" />
          </mxGeometry>
        </mxCell>
        <mxCell id="2Glj2CWhZ70RwVYnVsTa-26" value="PORT：7000" style="html=1;dropTarget=0;whiteSpace=wrap;verticalAlign=middle;" vertex="1" parent="1">
          <mxGeometry x="239" y="487" width="130" height="60" as="geometry" />
        </mxCell>
        <mxCell id="2Glj2CWhZ70RwVYnVsTa-27" value="" style="shape=module;jettyWidth=8;jettyHeight=4;" vertex="1" parent="2Glj2CWhZ70RwVYnVsTa-26">
          <mxGeometry x="1" width="20" height="20" relative="1" as="geometry">
            <mxPoint x="-27" y="7" as="offset" />
          </mxGeometry>
        </mxCell>
        <mxCell id="2Glj2CWhZ70RwVYnVsTa-28" value="PORT：7001" style="html=1;dropTarget=0;whiteSpace=wrap;verticalAlign=middle;" vertex="1" parent="1">
          <mxGeometry x="239" y="570" width="130" height="60" as="geometry" />
        </mxCell>
        <mxCell id="2Glj2CWhZ70RwVYnVsTa-29" value="" style="shape=module;jettyWidth=8;jettyHeight=4;" vertex="1" parent="2Glj2CWhZ70RwVYnVsTa-28">
          <mxGeometry x="1" width="20" height="20" relative="1" as="geometry">
            <mxPoint x="-27" y="7" as="offset" />
          </mxGeometry>
        </mxCell>
        <mxCell id="2Glj2CWhZ70RwVYnVsTa-30" value="PORT：7002" style="html=1;dropTarget=0;whiteSpace=wrap;verticalAlign=middle;" vertex="1" parent="1">
          <mxGeometry x="239" y="650" width="130" height="60" as="geometry" />
        </mxCell>
        <mxCell id="2Glj2CWhZ70RwVYnVsTa-31" value="" style="shape=module;jettyWidth=8;jettyHeight=4;" vertex="1" parent="2Glj2CWhZ70RwVYnVsTa-30">
          <mxGeometry x="1" width="20" height="20" relative="1" as="geometry">
            <mxPoint x="-27" y="7" as="offset" />
          </mxGeometry>
        </mxCell>
        <mxCell id="2Glj2CWhZ70RwVYnVsTa-32" value="192.168.22.98" style="html=1;dropTarget=0;whiteSpace=wrap;verticalAlign=top;align=center;" vertex="1" parent="1">
          <mxGeometry x="560" y="425" width="180" height="300" as="geometry" />
        </mxCell>
        <mxCell id="2Glj2CWhZ70RwVYnVsTa-33" value="" style="shape=module;jettyWidth=8;jettyHeight=4;" vertex="1" parent="2Glj2CWhZ70RwVYnVsTa-32">
          <mxGeometry x="1" width="20" height="20" relative="1" as="geometry">
            <mxPoint x="-27" y="7" as="offset" />
          </mxGeometry>
        </mxCell>
        <mxCell id="2Glj2CWhZ70RwVYnVsTa-34" value="PORT：7000" style="html=1;dropTarget=0;whiteSpace=wrap;verticalAlign=middle;" vertex="1" parent="1">
          <mxGeometry x="589" y="482" width="130" height="60" as="geometry" />
        </mxCell>
        <mxCell id="2Glj2CWhZ70RwVYnVsTa-35" value="" style="shape=module;jettyWidth=8;jettyHeight=4;" vertex="1" parent="2Glj2CWhZ70RwVYnVsTa-34">
          <mxGeometry x="1" width="20" height="20" relative="1" as="geometry">
            <mxPoint x="-27" y="7" as="offset" />
          </mxGeometry>
        </mxCell>
        <mxCell id="2Glj2CWhZ70RwVYnVsTa-36" value="PORT：7001" style="html=1;dropTarget=0;whiteSpace=wrap;verticalAlign=middle;" vertex="1" parent="1">
          <mxGeometry x="589" y="565" width="130" height="60" as="geometry" />
        </mxCell>
        <mxCell id="2Glj2CWhZ70RwVYnVsTa-37" value="" style="shape=module;jettyWidth=8;jettyHeight=4;" vertex="1" parent="2Glj2CWhZ70RwVYnVsTa-36">
          <mxGeometry x="1" width="20" height="20" relative="1" as="geometry">
            <mxPoint x="-27" y="7" as="offset" />
          </mxGeometry>
        </mxCell>
        <mxCell id="2Glj2CWhZ70RwVYnVsTa-40" value="192.168.22.99" style="html=1;dropTarget=0;whiteSpace=wrap;verticalAlign=top;align=center;" vertex="1" parent="1">
          <mxGeometry x="930" y="430" width="180" height="300" as="geometry" />
        </mxCell>
        <mxCell id="2Glj2CWhZ70RwVYnVsTa-41" value="" style="shape=module;jettyWidth=8;jettyHeight=4;" vertex="1" parent="2Glj2CWhZ70RwVYnVsTa-40">
          <mxGeometry x="1" width="20" height="20" relative="1" as="geometry">
            <mxPoint x="-27" y="7" as="offset" />
          </mxGeometry>
        </mxCell>
        <mxCell id="2Glj2CWhZ70RwVYnVsTa-42" value="PORT：7000" style="html=1;dropTarget=0;whiteSpace=wrap;verticalAlign=middle;" vertex="1" parent="1">
          <mxGeometry x="959" y="487" width="130" height="60" as="geometry" />
        </mxCell>
        <mxCell id="2Glj2CWhZ70RwVYnVsTa-43" value="" style="shape=module;jettyWidth=8;jettyHeight=4;" vertex="1" parent="2Glj2CWhZ70RwVYnVsTa-42">
          <mxGeometry x="1" width="20" height="20" relative="1" as="geometry">
            <mxPoint x="-27" y="7" as="offset" />
          </mxGeometry>
        </mxCell>
        <mxCell id="2Glj2CWhZ70RwVYnVsTa-44" value="PORT：7001" style="html=1;dropTarget=0;whiteSpace=wrap;verticalAlign=middle;" vertex="1" parent="1">
          <mxGeometry x="959" y="570" width="130" height="60" as="geometry" />
        </mxCell>
        <mxCell id="2Glj2CWhZ70RwVYnVsTa-45" value="" style="shape=module;jettyWidth=8;jettyHeight=4;" vertex="1" parent="2Glj2CWhZ70RwVYnVsTa-44">
          <mxGeometry x="1" width="20" height="20" relative="1" as="geometry">
            <mxPoint x="-27" y="7" as="offset" />
          </mxGeometry>
        </mxCell>
        <mxCell id="2Glj2CWhZ70RwVYnVsTa-46" value="PORT：7002" style="html=1;dropTarget=0;whiteSpace=wrap;verticalAlign=middle;" vertex="1" parent="1">
          <mxGeometry x="959" y="650" width="130" height="60" as="geometry" />
        </mxCell>
        <mxCell id="2Glj2CWhZ70RwVYnVsTa-47" value="" style="shape=module;jettyWidth=8;jettyHeight=4;" vertex="1" parent="2Glj2CWhZ70RwVYnVsTa-46">
          <mxGeometry x="1" width="20" height="20" relative="1" as="geometry">
            <mxPoint x="-27" y="7" as="offset" />
          </mxGeometry>
        </mxCell>
        <mxCell id="2Glj2CWhZ70RwVYnVsTa-48" value="192.168.22.100" style="html=1;dropTarget=0;whiteSpace=wrap;verticalAlign=top;align=center;" vertex="1" parent="1">
          <mxGeometry x="1300" y="425" width="180" height="300" as="geometry" />
        </mxCell>
        <mxCell id="2Glj2CWhZ70RwVYnVsTa-49" value="" style="shape=module;jettyWidth=8;jettyHeight=4;" vertex="1" parent="2Glj2CWhZ70RwVYnVsTa-48">
          <mxGeometry x="1" width="20" height="20" relative="1" as="geometry">
            <mxPoint x="-27" y="7" as="offset" />
          </mxGeometry>
        </mxCell>
        <mxCell id="2Glj2CWhZ70RwVYnVsTa-50" value="PORT：7000" style="html=1;dropTarget=0;whiteSpace=wrap;verticalAlign=middle;" vertex="1" parent="1">
          <mxGeometry x="1329" y="482" width="130" height="60" as="geometry" />
        </mxCell>
        <mxCell id="2Glj2CWhZ70RwVYnVsTa-51" value="" style="shape=module;jettyWidth=8;jettyHeight=4;" vertex="1" parent="2Glj2CWhZ70RwVYnVsTa-50">
          <mxGeometry x="1" width="20" height="20" relative="1" as="geometry">
            <mxPoint x="-27" y="7" as="offset" />
          </mxGeometry>
        </mxCell>
        <mxCell id="2Glj2CWhZ70RwVYnVsTa-56" value="EOCS" style="verticalAlign=top;align=center;spacingTop=8;spacingLeft=2;spacingRight=12;shape=cube;size=10;direction=south;fontStyle=5;html=1;rounded=0;shadow=0;comic=0;labelBackgroundColor=none;strokeWidth=1;fontFamily=Verdana;fontSize=12;labelPosition=center;verticalLabelPosition=middle;fillColor=#b1ddf0;strokeColor=#10739e;" vertex="1" parent="1">
          <mxGeometry x="120" y="840" width="1520" height="640" as="geometry" />
        </mxCell>
        <mxCell id="2Glj2CWhZ70RwVYnVsTa-57" value="EOCS-1" style="verticalAlign=top;align=center;spacingTop=8;spacingLeft=2;spacingRight=12;shape=cube;size=10;direction=south;fontStyle=5;html=1;rounded=0;shadow=0;comic=0;labelBackgroundColor=none;strokeWidth=1;fontFamily=Verdana;fontSize=12" vertex="1" parent="1">
          <mxGeometry x="150" y="909" width="300" height="470" as="geometry" />
        </mxCell>
        <mxCell id="2Glj2CWhZ70RwVYnVsTa-58" value="192.168.22.131" style="html=1;dropTarget=0;whiteSpace=wrap;verticalAlign=top;align=center;" vertex="1" parent="1">
          <mxGeometry x="180" y="975" width="240" height="115" as="geometry" />
        </mxCell>
        <mxCell id="2Glj2CWhZ70RwVYnVsTa-59" value="" style="shape=module;jettyWidth=8;jettyHeight=4;" vertex="1" parent="2Glj2CWhZ70RwVYnVsTa-58">
          <mxGeometry x="1" width="20" height="20" relative="1" as="geometry">
            <mxPoint x="-27" y="7" as="offset" />
          </mxGeometry>
        </mxCell>
        <mxCell id="2Glj2CWhZ70RwVYnVsTa-60" value="PORT：7000" style="html=1;dropTarget=0;whiteSpace=wrap;verticalAlign=bottom;" vertex="1" parent="1">
          <mxGeometry x="190" y="1018" width="110" height="58" as="geometry" />
        </mxCell>
        <mxCell id="2Glj2CWhZ70RwVYnVsTa-61" value="" style="shape=module;jettyWidth=8;jettyHeight=4;" vertex="1" parent="2Glj2CWhZ70RwVYnVsTa-60">
          <mxGeometry x="1" width="20" height="20" relative="1" as="geometry">
            <mxPoint x="-27" y="7" as="offset" />
          </mxGeometry>
        </mxCell>
        <mxCell id="2Glj2CWhZ70RwVYnVsTa-62" value="PORT：9000" style="html=1;dropTarget=0;whiteSpace=wrap;verticalAlign=bottom;" vertex="1" parent="1">
          <mxGeometry x="310" y="1018" width="100" height="58" as="geometry" />
        </mxCell>
        <mxCell id="2Glj2CWhZ70RwVYnVsTa-63" value="" style="shape=module;jettyWidth=8;jettyHeight=4;" vertex="1" parent="2Glj2CWhZ70RwVYnVsTa-62">
          <mxGeometry x="1" width="20" height="20" relative="1" as="geometry">
            <mxPoint x="-27" y="7" as="offset" />
          </mxGeometry>
        </mxCell>
        <mxCell id="2Glj2CWhZ70RwVYnVsTa-64" value="192.168.22.132" style="html=1;dropTarget=0;whiteSpace=wrap;verticalAlign=top;align=center;" vertex="1" parent="1">
          <mxGeometry x="180" y="1112" width="240" height="115" as="geometry" />
        </mxCell>
        <mxCell id="2Glj2CWhZ70RwVYnVsTa-65" value="" style="shape=module;jettyWidth=8;jettyHeight=4;" vertex="1" parent="2Glj2CWhZ70RwVYnVsTa-64">
          <mxGeometry x="1" width="20" height="20" relative="1" as="geometry">
            <mxPoint x="-27" y="7" as="offset" />
          </mxGeometry>
        </mxCell>
        <mxCell id="2Glj2CWhZ70RwVYnVsTa-66" value="PORT：7000" style="html=1;dropTarget=0;whiteSpace=wrap;verticalAlign=bottom;" vertex="1" parent="1">
          <mxGeometry x="190" y="1155" width="110" height="58" as="geometry" />
        </mxCell>
        <mxCell id="2Glj2CWhZ70RwVYnVsTa-67" value="" style="shape=module;jettyWidth=8;jettyHeight=4;" vertex="1" parent="2Glj2CWhZ70RwVYnVsTa-66">
          <mxGeometry x="1" width="20" height="20" relative="1" as="geometry">
            <mxPoint x="-27" y="7" as="offset" />
          </mxGeometry>
        </mxCell>
        <mxCell id="2Glj2CWhZ70RwVYnVsTa-68" value="PORT：9000" style="html=1;dropTarget=0;whiteSpace=wrap;verticalAlign=bottom;" vertex="1" parent="1">
          <mxGeometry x="310" y="1155" width="100" height="58" as="geometry" />
        </mxCell>
        <mxCell id="2Glj2CWhZ70RwVYnVsTa-69" value="" style="shape=module;jettyWidth=8;jettyHeight=4;" vertex="1" parent="2Glj2CWhZ70RwVYnVsTa-68">
          <mxGeometry x="1" width="20" height="20" relative="1" as="geometry">
            <mxPoint x="-27" y="7" as="offset" />
          </mxGeometry>
        </mxCell>
        <mxCell id="2Glj2CWhZ70RwVYnVsTa-70" value="192.168.22.133" style="html=1;dropTarget=0;whiteSpace=wrap;verticalAlign=top;align=center;" vertex="1" parent="1">
          <mxGeometry x="180" y="1250" width="240" height="115" as="geometry" />
        </mxCell>
        <mxCell id="2Glj2CWhZ70RwVYnVsTa-71" value="" style="shape=module;jettyWidth=8;jettyHeight=4;" vertex="1" parent="2Glj2CWhZ70RwVYnVsTa-70">
          <mxGeometry x="1" width="20" height="20" relative="1" as="geometry">
            <mxPoint x="-27" y="7" as="offset" />
          </mxGeometry>
        </mxCell>
        <mxCell id="2Glj2CWhZ70RwVYnVsTa-72" value="PORT：7000" style="html=1;dropTarget=0;whiteSpace=wrap;verticalAlign=bottom;" vertex="1" parent="1">
          <mxGeometry x="190" y="1293" width="110" height="58" as="geometry" />
        </mxCell>
        <mxCell id="2Glj2CWhZ70RwVYnVsTa-73" value="" style="shape=module;jettyWidth=8;jettyHeight=4;" vertex="1" parent="2Glj2CWhZ70RwVYnVsTa-72">
          <mxGeometry x="1" width="20" height="20" relative="1" as="geometry">
            <mxPoint x="-27" y="7" as="offset" />
          </mxGeometry>
        </mxCell>
        <mxCell id="2Glj2CWhZ70RwVYnVsTa-74" value="PORT：9000" style="html=1;dropTarget=0;whiteSpace=wrap;verticalAlign=bottom;" vertex="1" parent="1">
          <mxGeometry x="310" y="1293" width="100" height="58" as="geometry" />
        </mxCell>
        <mxCell id="2Glj2CWhZ70RwVYnVsTa-75" value="" style="shape=module;jettyWidth=8;jettyHeight=4;" vertex="1" parent="2Glj2CWhZ70RwVYnVsTa-74">
          <mxGeometry x="1" width="20" height="20" relative="1" as="geometry">
            <mxPoint x="-27" y="7" as="offset" />
          </mxGeometry>
        </mxCell>
        <mxCell id="2Glj2CWhZ70RwVYnVsTa-76" value="EOCS-2" style="verticalAlign=top;align=center;spacingTop=8;spacingLeft=2;spacingRight=12;shape=cube;size=10;direction=south;fontStyle=5;html=1;rounded=0;shadow=0;comic=0;labelBackgroundColor=none;strokeWidth=1;fontFamily=Verdana;fontSize=12" vertex="1" parent="1">
          <mxGeometry x="504" y="909" width="300" height="470" as="geometry" />
        </mxCell>
        <mxCell id="2Glj2CWhZ70RwVYnVsTa-77" value="192.168.22.141" style="html=1;dropTarget=0;whiteSpace=wrap;verticalAlign=top;align=center;" vertex="1" parent="1">
          <mxGeometry x="534" y="975" width="240" height="115" as="geometry" />
        </mxCell>
        <mxCell id="2Glj2CWhZ70RwVYnVsTa-78" value="" style="shape=module;jettyWidth=8;jettyHeight=4;" vertex="1" parent="2Glj2CWhZ70RwVYnVsTa-77">
          <mxGeometry x="1" width="20" height="20" relative="1" as="geometry">
            <mxPoint x="-27" y="7" as="offset" />
          </mxGeometry>
        </mxCell>
        <mxCell id="2Glj2CWhZ70RwVYnVsTa-79" value="PORT：7000" style="html=1;dropTarget=0;whiteSpace=wrap;verticalAlign=bottom;" vertex="1" parent="1">
          <mxGeometry x="544" y="1018" width="110" height="58" as="geometry" />
        </mxCell>
        <mxCell id="2Glj2CWhZ70RwVYnVsTa-80" value="" style="shape=module;jettyWidth=8;jettyHeight=4;" vertex="1" parent="2Glj2CWhZ70RwVYnVsTa-79">
          <mxGeometry x="1" width="20" height="20" relative="1" as="geometry">
            <mxPoint x="-27" y="7" as="offset" />
          </mxGeometry>
        </mxCell>
        <mxCell id="2Glj2CWhZ70RwVYnVsTa-81" value="PORT：9000" style="html=1;dropTarget=0;whiteSpace=wrap;verticalAlign=bottom;" vertex="1" parent="1">
          <mxGeometry x="664" y="1018" width="100" height="58" as="geometry" />
        </mxCell>
        <mxCell id="2Glj2CWhZ70RwVYnVsTa-82" value="" style="shape=module;jettyWidth=8;jettyHeight=4;" vertex="1" parent="2Glj2CWhZ70RwVYnVsTa-81">
          <mxGeometry x="1" width="20" height="20" relative="1" as="geometry">
            <mxPoint x="-27" y="7" as="offset" />
          </mxGeometry>
        </mxCell>
        <mxCell id="2Glj2CWhZ70RwVYnVsTa-83" value="192.168.22.142" style="html=1;dropTarget=0;whiteSpace=wrap;verticalAlign=top;align=center;" vertex="1" parent="1">
          <mxGeometry x="534" y="1112" width="240" height="115" as="geometry" />
        </mxCell>
        <mxCell id="2Glj2CWhZ70RwVYnVsTa-84" value="" style="shape=module;jettyWidth=8;jettyHeight=4;" vertex="1" parent="2Glj2CWhZ70RwVYnVsTa-83">
          <mxGeometry x="1" width="20" height="20" relative="1" as="geometry">
            <mxPoint x="-27" y="7" as="offset" />
          </mxGeometry>
        </mxCell>
        <mxCell id="2Glj2CWhZ70RwVYnVsTa-85" value="PORT：7000" style="html=1;dropTarget=0;whiteSpace=wrap;verticalAlign=bottom;" vertex="1" parent="1">
          <mxGeometry x="544" y="1155" width="110" height="58" as="geometry" />
        </mxCell>
        <mxCell id="2Glj2CWhZ70RwVYnVsTa-86" value="" style="shape=module;jettyWidth=8;jettyHeight=4;" vertex="1" parent="2Glj2CWhZ70RwVYnVsTa-85">
          <mxGeometry x="1" width="20" height="20" relative="1" as="geometry">
            <mxPoint x="-27" y="7" as="offset" />
          </mxGeometry>
        </mxCell>
        <mxCell id="2Glj2CWhZ70RwVYnVsTa-87" value="PORT：9000" style="html=1;dropTarget=0;whiteSpace=wrap;verticalAlign=bottom;" vertex="1" parent="1">
          <mxGeometry x="664" y="1155" width="100" height="58" as="geometry" />
        </mxCell>
        <mxCell id="2Glj2CWhZ70RwVYnVsTa-88" value="" style="shape=module;jettyWidth=8;jettyHeight=4;" vertex="1" parent="2Glj2CWhZ70RwVYnVsTa-87">
          <mxGeometry x="1" width="20" height="20" relative="1" as="geometry">
            <mxPoint x="-27" y="7" as="offset" />
          </mxGeometry>
        </mxCell>
        <mxCell id="2Glj2CWhZ70RwVYnVsTa-95" value="EOCS-3" style="verticalAlign=top;align=center;spacingTop=8;spacingLeft=2;spacingRight=12;shape=cube;size=10;direction=south;fontStyle=5;html=1;rounded=0;shadow=0;comic=0;labelBackgroundColor=none;strokeWidth=1;fontFamily=Verdana;fontSize=12" vertex="1" parent="1">
          <mxGeometry x="870" y="909" width="300" height="470" as="geometry" />
        </mxCell>
        <mxCell id="2Glj2CWhZ70RwVYnVsTa-96" value="192.168.22.151" style="html=1;dropTarget=0;whiteSpace=wrap;verticalAlign=top;align=center;" vertex="1" parent="1">
          <mxGeometry x="900" y="975" width="240" height="115" as="geometry" />
        </mxCell>
        <mxCell id="2Glj2CWhZ70RwVYnVsTa-97" value="" style="shape=module;jettyWidth=8;jettyHeight=4;" vertex="1" parent="2Glj2CWhZ70RwVYnVsTa-96">
          <mxGeometry x="1" width="20" height="20" relative="1" as="geometry">
            <mxPoint x="-27" y="7" as="offset" />
          </mxGeometry>
        </mxCell>
        <mxCell id="2Glj2CWhZ70RwVYnVsTa-98" value="PORT：7000" style="html=1;dropTarget=0;whiteSpace=wrap;verticalAlign=bottom;" vertex="1" parent="1">
          <mxGeometry x="910" y="1018" width="110" height="58" as="geometry" />
        </mxCell>
        <mxCell id="2Glj2CWhZ70RwVYnVsTa-99" value="" style="shape=module;jettyWidth=8;jettyHeight=4;" vertex="1" parent="2Glj2CWhZ70RwVYnVsTa-98">
          <mxGeometry x="1" width="20" height="20" relative="1" as="geometry">
            <mxPoint x="-27" y="7" as="offset" />
          </mxGeometry>
        </mxCell>
        <mxCell id="2Glj2CWhZ70RwVYnVsTa-100" value="PORT：9000" style="html=1;dropTarget=0;whiteSpace=wrap;verticalAlign=bottom;" vertex="1" parent="1">
          <mxGeometry x="1030" y="1018" width="100" height="58" as="geometry" />
        </mxCell>
        <mxCell id="2Glj2CWhZ70RwVYnVsTa-101" value="" style="shape=module;jettyWidth=8;jettyHeight=4;" vertex="1" parent="2Glj2CWhZ70RwVYnVsTa-100">
          <mxGeometry x="1" width="20" height="20" relative="1" as="geometry">
            <mxPoint x="-27" y="7" as="offset" />
          </mxGeometry>
        </mxCell>
        <mxCell id="2Glj2CWhZ70RwVYnVsTa-102" value="192.168.22.152" style="html=1;dropTarget=0;whiteSpace=wrap;verticalAlign=top;align=center;" vertex="1" parent="1">
          <mxGeometry x="900" y="1112" width="240" height="115" as="geometry" />
        </mxCell>
        <mxCell id="2Glj2CWhZ70RwVYnVsTa-103" value="" style="shape=module;jettyWidth=8;jettyHeight=4;" vertex="1" parent="2Glj2CWhZ70RwVYnVsTa-102">
          <mxGeometry x="1" width="20" height="20" relative="1" as="geometry">
            <mxPoint x="-27" y="7" as="offset" />
          </mxGeometry>
        </mxCell>
        <mxCell id="2Glj2CWhZ70RwVYnVsTa-104" value="PORT：7000" style="html=1;dropTarget=0;whiteSpace=wrap;verticalAlign=bottom;" vertex="1" parent="1">
          <mxGeometry x="910" y="1155" width="110" height="58" as="geometry" />
        </mxCell>
        <mxCell id="2Glj2CWhZ70RwVYnVsTa-105" value="" style="shape=module;jettyWidth=8;jettyHeight=4;" vertex="1" parent="2Glj2CWhZ70RwVYnVsTa-104">
          <mxGeometry x="1" width="20" height="20" relative="1" as="geometry">
            <mxPoint x="-27" y="7" as="offset" />
          </mxGeometry>
        </mxCell>
        <mxCell id="2Glj2CWhZ70RwVYnVsTa-106" value="PORT：9000" style="html=1;dropTarget=0;whiteSpace=wrap;verticalAlign=bottom;" vertex="1" parent="1">
          <mxGeometry x="1030" y="1155" width="100" height="58" as="geometry" />
        </mxCell>
        <mxCell id="2Glj2CWhZ70RwVYnVsTa-107" value="" style="shape=module;jettyWidth=8;jettyHeight=4;" vertex="1" parent="2Glj2CWhZ70RwVYnVsTa-106">
          <mxGeometry x="1" width="20" height="20" relative="1" as="geometry">
            <mxPoint x="-27" y="7" as="offset" />
          </mxGeometry>
        </mxCell>
        <mxCell id="2Glj2CWhZ70RwVYnVsTa-108" value="192.168.22.153" style="html=1;dropTarget=0;whiteSpace=wrap;verticalAlign=top;align=center;" vertex="1" parent="1">
          <mxGeometry x="900" y="1250" width="240" height="115" as="geometry" />
        </mxCell>
        <mxCell id="2Glj2CWhZ70RwVYnVsTa-109" value="" style="shape=module;jettyWidth=8;jettyHeight=4;" vertex="1" parent="2Glj2CWhZ70RwVYnVsTa-108">
          <mxGeometry x="1" width="20" height="20" relative="1" as="geometry">
            <mxPoint x="-27" y="7" as="offset" />
          </mxGeometry>
        </mxCell>
        <mxCell id="2Glj2CWhZ70RwVYnVsTa-110" value="PORT：7000" style="html=1;dropTarget=0;whiteSpace=wrap;verticalAlign=bottom;" vertex="1" parent="1">
          <mxGeometry x="910" y="1293" width="110" height="58" as="geometry" />
        </mxCell>
        <mxCell id="2Glj2CWhZ70RwVYnVsTa-111" value="" style="shape=module;jettyWidth=8;jettyHeight=4;" vertex="1" parent="2Glj2CWhZ70RwVYnVsTa-110">
          <mxGeometry x="1" width="20" height="20" relative="1" as="geometry">
            <mxPoint x="-27" y="7" as="offset" />
          </mxGeometry>
        </mxCell>
        <mxCell id="2Glj2CWhZ70RwVYnVsTa-112" value="PORT：9000" style="html=1;dropTarget=0;whiteSpace=wrap;verticalAlign=bottom;" vertex="1" parent="1">
          <mxGeometry x="1030" y="1293" width="100" height="58" as="geometry" />
        </mxCell>
        <mxCell id="2Glj2CWhZ70RwVYnVsTa-113" value="" style="shape=module;jettyWidth=8;jettyHeight=4;" vertex="1" parent="2Glj2CWhZ70RwVYnVsTa-112">
          <mxGeometry x="1" width="20" height="20" relative="1" as="geometry">
            <mxPoint x="-27" y="7" as="offset" />
          </mxGeometry>
        </mxCell>
        <mxCell id="2Glj2CWhZ70RwVYnVsTa-114" value="EOCS-4" style="verticalAlign=top;align=center;spacingTop=8;spacingLeft=2;spacingRight=12;shape=cube;size=10;direction=south;fontStyle=5;html=1;rounded=0;shadow=0;comic=0;labelBackgroundColor=none;strokeWidth=1;fontFamily=Verdana;fontSize=12" vertex="1" parent="1">
          <mxGeometry x="1244" y="909" width="300" height="470" as="geometry" />
        </mxCell>
        <mxCell id="2Glj2CWhZ70RwVYnVsTa-115" value="192.168.22.161" style="html=1;dropTarget=0;whiteSpace=wrap;verticalAlign=top;align=center;" vertex="1" parent="1">
          <mxGeometry x="1274" y="975" width="240" height="115" as="geometry" />
        </mxCell>
        <mxCell id="2Glj2CWhZ70RwVYnVsTa-116" value="" style="shape=module;jettyWidth=8;jettyHeight=4;" vertex="1" parent="2Glj2CWhZ70RwVYnVsTa-115">
          <mxGeometry x="1" width="20" height="20" relative="1" as="geometry">
            <mxPoint x="-27" y="7" as="offset" />
          </mxGeometry>
        </mxCell>
        <mxCell id="2Glj2CWhZ70RwVYnVsTa-117" value="PORT：7000" style="html=1;dropTarget=0;whiteSpace=wrap;verticalAlign=bottom;" vertex="1" parent="1">
          <mxGeometry x="1284" y="1018" width="110" height="58" as="geometry" />
        </mxCell>
        <mxCell id="2Glj2CWhZ70RwVYnVsTa-118" value="" style="shape=module;jettyWidth=8;jettyHeight=4;" vertex="1" parent="2Glj2CWhZ70RwVYnVsTa-117">
          <mxGeometry x="1" width="20" height="20" relative="1" as="geometry">
            <mxPoint x="-27" y="7" as="offset" />
          </mxGeometry>
        </mxCell>
        <mxCell id="2Glj2CWhZ70RwVYnVsTa-119" value="PORT：9000" style="html=1;dropTarget=0;whiteSpace=wrap;verticalAlign=bottom;" vertex="1" parent="1">
          <mxGeometry x="1404" y="1018" width="100" height="58" as="geometry" />
        </mxCell>
        <mxCell id="2Glj2CWhZ70RwVYnVsTa-120" value="" style="shape=module;jettyWidth=8;jettyHeight=4;" vertex="1" parent="2Glj2CWhZ70RwVYnVsTa-119">
          <mxGeometry x="1" width="20" height="20" relative="1" as="geometry">
            <mxPoint x="-27" y="7" as="offset" />
          </mxGeometry>
        </mxCell>
        <mxCell id="2Glj2CWhZ70RwVYnVsTa-133" value="Line Simu" style="verticalAlign=top;align=center;spacingTop=8;spacingLeft=2;spacingRight=12;shape=cube;size=10;direction=south;fontStyle=5;html=1;rounded=0;shadow=0;comic=0;labelBackgroundColor=none;strokeWidth=1;fontFamily=Verdana;fontSize=12;labelPosition=center;verticalLabelPosition=middle;fillColor=#b1ddf0;strokeColor=#10739e;" vertex="1" parent="1">
          <mxGeometry x="130" y="1520" width="1520" height="150" as="geometry" />
        </mxCell>
        <mxCell id="2Glj2CWhZ70RwVYnVsTa-134" value="&lt;font style=&quot;font-size: 15px;&quot;&gt;192.168.22.254:6000+RegionId * 100 + CabinetIndex + 1&lt;/font&gt;" style="html=1;dropTarget=0;whiteSpace=wrap;verticalAlign=bottom;" vertex="1" parent="1">
          <mxGeometry x="320" y="1580" width="1050" height="58" as="geometry" />
        </mxCell>
        <mxCell id="2Glj2CWhZ70RwVYnVsTa-135" value="" style="shape=module;jettyWidth=8;jettyHeight=4;" vertex="1" parent="2Glj2CWhZ70RwVYnVsTa-134">
          <mxGeometry x="1" width="20" height="20" relative="1" as="geometry">
            <mxPoint x="-27" y="7" as="offset" />
          </mxGeometry>
        </mxCell>
      </root>
    </mxGraphModel>
  </diagram>
</mxfile>
